<svg fill="none" class="middle-arrow" viewBox="0 0 32 153" xmlns="http://www.w3.org/2000/svg"><path d="m29.2 133.2c-1.2 0.2-2.4 0.7-3.5 1.3-5.5 3.4-10.9 7-16.6 10.5 0.1-0.5 0.09999-1 0.29999-1.5 1.7-3.8 3.5-7.4 5.1-11.3 2.6-6.3 5.3-12.6 7.5-19.1 4-11.4 7-23.1 7.2-35.4 0.1-5.8 0.1-11.6-0.7-17.3-1.3-8.8-3-17.6-5-26.3-1.4-5.9-3.1-11.8-5.5-17.3-2.1-4.7-5.3001-8.9-8.1-13.3-0.7-1.1-1.8-2.1-2.8-2.9-0.4-0.3-1.3 0.099997-2 0.2 0.3 0.7 0.49999 1.3 0.79999 2 0.2 0.4 0.7 0.69999 1 1.1 2.2 3.7 4.4 7.4 6.4 11.2 3.7 6.9 5.7001 14.3 7.2001 21.9 1.9 9.7 3.4999 19.5 4.3999 29.4 0.9 9.8 0 19.7-2.5 29.3-1.4 5.4-2.9999 10.8-4.6999 16.2-1.2 4-2.4 8.1-4 11.9-1.9 4.6-4.4 9-6.6 13.5-0.1-0.2-0.30002-0.4-0.30002-0.7-0.3-2.8-0.59999-5.7-0.89999-8.6-0.3-3.2-0.39999-6.4-0.79999-9.6-0.1-0.7-1.1-1.8-1.5-1.8-1.1 0.2-2.5 0.7-2.9 1.6-0.6 1.1-0.6 2.7-0.5 4.1 0.2 4.2 0.39998 8.4 0.69998 12.5 0.3 3.7 0.69999 7.4 1.4 11.1 0.4 2.1 0.90001 5.3 2.2 5.9 1.6 0.7 4.5-0.5 6.3-1.7 5.8-3.9 11.2-8.1 16.9-12.2 0.9-0.7 2.1-1.1 2.9-1.9 0.6-0.6 0.5999-1.7 0.7999-2.6-0.7 0-1.4999-0.3-2.1999-0.2z" fill="#e21286"></path></svg>